<svg width="24" height="16" viewBox="0 0 24 16" fill="none" xmlns="http://www.w3.org/2000/svg">
<g clip-path="url(#clip0_0_1958)">
<path d="M11.2766 13.6654L11.2742 13.6617L9.73242 16.0001H9.73754H12.8156H13.4526L15.878 12.3207L14.0207 9.50293L11.2766 13.6654Z" fill="#CECED1"/>
<path d="M18.7037 8.03424L16.846 5.2165V5.21712L16.843 5.21307L16.8436 5.21245L16.7593 5.08451L14.9859 2.39471L14.9847 2.39315L14.6673 1.91128L13.5655 0.24C13.355 -0.0793775 12.8996 -0.0793775 12.6891 0.24L11.5874 1.91128L11.2693 2.39377L11.2561 2.4137L10.3016 3.86179L9.49537 5.08451L7.55756 8.02428L5.61946 5.08451L3.52744 1.91128L3.07025 1.21774L2.2676 0H0L0 16.0078H3.07025V6.85292L5.69987 10.842L7.55726 13.6598L7.55847 13.6616L9.41616 10.8436L9.41495 10.8417L12.159 6.67953L12.1602 6.68109L13.1147 5.23331L14.9724 8.05105L14.9856 8.03113L14.988 8.03486L14.9751 8.05479L16.8325 10.8725L16.8457 10.8526L20.2388 16H23.9539L18.7031 8.03486L18.7037 8.03424ZM13.1147 5.23331L13.1135 5.23144L13.1267 5.21152L13.1279 5.21339L13.1147 5.23331Z" fill="#CECED1"/>
<path d="M18.6683 5.08451L19.658 6.58584L20.6479 5.08451L21.6813 3.51689L23.9998 0H20.2847L19.0249 1.91128H19.0194L17.7979 3.76436L17.8006 3.76841L18.6683 5.08451Z" fill="#CECED1"/>
</g>
<defs>
<clipPath id="clip0_0_1958">
<rect width="24" height="16" fill="white"/>
</clipPath>
</defs>
</svg>
