<svg width="32" height="33" viewBox="0 0 32 33" fill="none" xmlns="http://www.w3.org/2000/svg">
<path d="M26.3867 20.4067C23.64 23.14 19.7067 23.98 16.2533 22.9L9.97332 29.1667C9.51999 29.6334 8.62666 29.9134 7.98666 29.82L5.07999 29.42C4.11999 29.2867 3.22666 28.38 3.07999 27.42L2.67999 24.5134C2.58666 23.8734 2.89332 22.98 3.33332 22.5267L9.59999 16.26C8.53332 12.7934 9.35999 8.86003 12.1067 6.1267C16.04 2.19336 22.4267 2.19336 26.3733 6.1267C30.32 10.06 30.32 16.4734 26.3867 20.4067Z" stroke="white" stroke-width="2" stroke-miterlimit="10" stroke-linecap="round" stroke-linejoin="round"/>
<path d="M9.18665 23.82L12.2533 26.8867" stroke="white" stroke-width="2" stroke-miterlimit="10" stroke-linecap="round" stroke-linejoin="round"/>
<path d="M19.3334 15.1667C20.4379 15.1667 21.3334 14.2713 21.3334 13.1667C21.3334 12.0621 20.4379 11.1667 19.3334 11.1667C18.2288 11.1667 17.3334 12.0621 17.3334 13.1667C17.3334 14.2713 18.2288 15.1667 19.3334 15.1667Z" stroke="white" stroke-width="2" stroke-linecap="round" stroke-linejoin="round"/>
</svg>
