<svg width="32" height="33" viewBox="0 0 32 33" fill="none" xmlns="http://www.w3.org/2000/svg">
<path d="M26.6666 5.16669H7.33322C6.93322 5.16669 6.53322 5.30002 6.26655 5.70002L4.26655 8.36669C3.59989 9.30002 4.26655 10.5 5.33322 10.5H24.6666C25.0666 10.5 25.4666 10.3667 25.7332 9.96669L27.7332 7.30002C28.3999 6.36669 27.7332 5.16669 26.6666 5.16669Z" stroke="white" stroke-width="2" stroke-miterlimit="10"/>
<path d="M5.33322 13.8333H24.6666C25.0666 13.8333 25.4666 13.9666 25.7332 14.3666L27.7332 17.0333C28.3999 17.9666 27.7332 19.1666 26.6666 19.1666H7.33322C6.93322 19.1666 6.53322 19.0333 6.26655 18.6333L4.26655 15.9666C3.59989 15.0333 4.26655 13.8333 5.33322 13.8333Z" stroke="white" stroke-width="2" stroke-miterlimit="10"/>
<path d="M26.6666 22.5H7.33322C6.93322 22.5 6.53322 22.6333 6.26655 23.0333L4.26655 25.7C3.59989 26.6333 4.26655 27.8333 5.33322 27.8333H24.6666C25.0666 27.8333 25.4666 27.7 25.7332 27.3L27.7332 24.6333C28.3999 23.7 27.7332 22.5 26.6666 22.5Z" stroke="white" stroke-width="2" stroke-miterlimit="10"/>
</svg>
