<svg width="74" height="74" viewBox="0 0 74 74" fill="none" xmlns="http://www.w3.org/2000/svg">
<path d="M36.821 73.642C57.1567 73.642 73.642 57.1567 73.642 36.821C73.642 16.4853 57.1567 0 36.821 0C16.4853 0 0 16.4853 0 36.821C0 57.1567 16.4853 73.642 36.821 73.642Z" fill="url(#paint0_linear_0_4158)"/>
<path d="M19.3813 47.4803C19.6933 47.1683 20.1213 46.9863 20.5763 46.9863H61.8073C62.5603 46.9863 62.9373 47.8953 62.4053 48.4283L54.2603 56.5733C53.9483 56.8853 53.5203 57.0673 53.0653 57.0673H11.8343C11.0813 57.0673 10.7043 56.1583 11.2363 55.6253L19.3813 47.4803Z" fill="white"/>
<path d="M19.3813 17.0702C19.7063 16.7582 20.1343 16.5762 20.5763 16.5762H61.8073C62.5603 16.5762 62.9373 17.4852 62.4053 18.0182L54.2603 26.1632C53.9483 26.4752 53.5203 26.6572 53.0653 26.6572H11.8343C11.0813 26.6572 10.7043 25.7482 11.2363 25.2152L19.3813 17.0702Z" fill="white"/>
<path d="M54.2603 32.1781C53.9483 31.8661 53.5203 31.6841 53.0653 31.6841H11.8343C11.0813 31.6841 10.7043 32.5931 11.2363 33.1261L19.3813 41.2711C19.6933 41.5831 20.1213 41.7651 20.5763 41.7651H61.8073C62.5603 41.7651 62.9373 40.8561 62.4053 40.3231L54.2603 32.1781Z" fill="white"/>
<defs>
<linearGradient id="paint0_linear_0_4158" x1="69.0948" y1="3.9103" x2="9.2362" y2="64.9503" gradientUnits="userSpaceOnUse">
<stop stop-color="#00FFA3"/>
<stop offset="1" stop-color="#DC1FFF"/>
</linearGradient>
</defs>
</svg>
